<svg width="25" height="25" viewBox="0 0 25 25" fill="none" xmlns="http://www.w3.org/2000/svg">
<path d="M13.2406 13.7534L10.3649 16.6165C10.2477 16.7328 10.1547 16.871 10.0913 17.0234C10.0278 17.1758 9.9951 17.3392 9.9951 17.5042C9.9951 17.6693 10.0278 17.8327 10.0913 17.9851C10.1547 18.1374 10.2477 18.2757 10.3649 18.3919C10.4812 18.5091 10.6194 18.6021 10.7718 18.6656C10.9242 18.7291 11.0876 18.7618 11.2526 18.7618C11.4177 18.7618 11.5811 18.7291 11.7335 18.6656C11.8858 18.6021 12.0241 18.5091 12.1404 18.3919L17.1415 13.3908C17.2554 13.2719 17.3446 13.1316 17.4041 12.9782C17.5291 12.6738 17.5291 12.3323 17.4041 12.0279C17.3446 11.8745 17.2554 11.7343 17.1415 11.6154L12.1404 6.61418C12.0238 6.4976 11.8854 6.40513 11.7331 6.34204C11.5808 6.27895 11.4175 6.24648 11.2526 6.24648C11.0878 6.24648 10.9245 6.27895 10.7722 6.34204C10.6199 6.40513 10.4815 6.4976 10.3649 6.61418C10.2484 6.73075 10.1559 6.86915 10.0928 7.02146C10.0297 7.17377 9.99723 7.33702 9.99723 7.50189C9.99723 7.66675 10.0297 7.83 10.0928 7.98231C10.1559 8.13462 10.2484 8.27302 10.3649 8.38959L13.2406 11.2528H1.25029C0.918695 11.2528 0.600678 11.3845 0.366202 11.619C0.131727 11.8534 0 12.1715 0 12.5031C0 12.8347 0.131727 13.1527 0.366202 13.3872C0.600678 13.6216 0.918695 13.7534 1.25029 13.7534H13.2406ZM12.5029 0.000124646C10.1663 -0.0103075 7.8734 0.63429 5.88447 1.8608C3.89553 3.08731 2.29011 4.84665 1.25029 6.93925C1.10107 7.23769 1.07652 7.58318 1.18203 7.89973C1.28755 8.21627 1.51449 8.47793 1.81293 8.62715C2.11136 8.77637 2.45686 8.80092 2.7734 8.69541C3.08994 8.5899 3.3516 8.36296 3.50082 8.06452C4.29125 6.46829 5.49358 5.1121 6.98358 4.13608C8.47357 3.16006 10.1972 2.59963 11.9763 2.5127C13.7553 2.42578 15.5254 2.81551 17.1034 3.64162C18.6815 4.46773 20.0103 5.70025 20.9526 7.21181C21.8948 8.72337 22.4164 10.4591 22.4633 12.2397C22.5102 14.0203 22.0808 15.7811 21.2194 17.3402C20.358 18.8993 19.0959 20.2001 17.5635 21.1081C16.0312 22.0162 14.2841 22.4985 12.5029 22.5054C10.6386 22.5135 8.80976 21.9957 7.22631 21.0116C5.64286 20.0275 4.36897 18.6169 3.55083 16.9416C3.40161 16.6432 3.13995 16.4162 2.82341 16.3107C2.50687 16.2052 2.16138 16.2298 1.86294 16.379C1.5645 16.5282 1.33756 16.7899 1.23205 17.1064C1.12653 17.4229 1.15109 17.7684 1.30031 18.0669C2.29157 20.0617 3.79779 21.7555 5.66317 22.9731C7.52854 24.1906 9.68533 24.8877 11.9104 24.9922C14.1356 25.0967 16.3482 24.6049 18.3195 23.5675C20.2908 22.5302 21.9491 20.985 23.123 19.0919C24.2969 17.1987 24.9437 15.0263 24.9965 12.7994C25.0493 10.5724 24.5062 8.37183 23.4233 6.42517C22.3404 4.47852 20.7572 2.8565 18.8373 1.72691C16.9173 0.597321 14.7305 0.00117046 12.5029 0.000124646Z" fill="#F58634"/>
</svg>
